<svg width="32" height="32" viewBox="0 0 32 32" fill="none" xmlns="http://www.w3.org/2000/svg">
<g clip-path="url(#clip0_1_2)">
<mask id="mask0_1_2" style="mask-type:luminance" maskUnits="userSpaceOnUse" x="5" y="3" width="22" height="26">
<path d="M26.755 3.39849L5.72736 3.2L5.48571 28.7989L26.5133 28.9974L26.755 3.39849Z" fill="white"/>
</mask>
<g mask="url(#mask0_1_2)">
<path d="M8.60485 6.40823C12.6391 2.32486 19.2099 2.25347 23.3317 6.24846C27.5095 10.2977 27.5819 16.9778 23.493 21.1168L16.2087 28.49L8.76617 21.2765C4.58839 17.2272 4.51591 10.5472 8.60485 6.40823ZM16.0026 9.49019C13.6204 9.51602 11.7098 11.45 11.7354 13.8095C11.7611 16.169 13.7132 18.0606 16.0953 18.0348C18.4773 18.0088 20.3875 16.0753 20.362 13.7159C20.3365 11.3564 18.3846 9.46441 16.0026 9.49019Z" fill="black"/>
</g>
</g>
<defs>
<clipPath id="clip0_1_2">
<rect width="32" height="32" fill="white"/>
</clipPath>
</defs>
</svg>
